<svg xmlns="http://www.w3.org/2000/svg" viewBox="0 0 777 1100"><filter id="b"><feGaussianBlur stdDeviation="12" /></filter><path fill="#e9eef4" d="M0 0h777v1100H0z"/><g filter="url(#b)" transform="translate(2.1 2.1) scale(4.29688)" fill-opacity=".5"><path fill="#b0acdc" d="M123.8 132.5l24.6 56.1-21.7-40.7-69.1 9.3z"/><ellipse fill="#5882ce" rx="1" ry="1" transform="rotate(158.3 16.5 52.6) scale(1 60.76725)"/><ellipse fill="#5d83ce" rx="1" ry="1" transform="matrix(-8.80927 -40.19776 .97682 -.21407 148.2 200.9)"/><path fill="#939bd0" d="M65.7 101.7l12.7 47L39 33.8l4.6 24z"/><path fill="#797ec1" d="M146.7 159.1l1-.2 17.6 76-1 .2z"/><ellipse fill="#eff6f8" cx="127" cy="71" rx="70" ry="70"/><ellipse fill="#ea8ad9" rx="1" ry="1" transform="matrix(-23.59047 -60.16392 .93099 -.36504 36.8 81)"/><path fill="#c6cccc" d="M83 47h56v8H83z"/></g></svg>