<svg xmlns="http://www.w3.org/2000/svg" viewBox="0 0 789 1100"><filter id="c"><feGaussianBlur stdDeviation="55" /></filter><path fill="#ebeeec" d="M0 0h790v1100H0z"/><g filter='url(#c)' fill-opacity='.5'><path fill="#91b9a4" fill-opacity=".5" d="M424.2 665.1L516 747l-60.5-75.1-168.2 97z"/><ellipse fill="#d9e4dc" fill-opacity=".5" rx="1" ry="1" transform="matrix(3.76371 194.95324 -123.6954 2.38803 195 725)"/><path fill="#a0b69a" fill-opacity=".5" d="M490.2 428L309.3 89.5l157 328.3L596 348.5z"/><ellipse fill="#7abca6" fill-opacity=".5" rx="1" ry="1" transform="matrix(-3.84149 1.92512 -84.32852 -168.27355 420 225)"/><path fill="#87c8b2" fill-opacity=".5" d="M293.8 286.9l-106-208.1 100.8 225.1 140.8 290.9z"/><ellipse fill="#fefbfd" fill-opacity=".5" rx="1" ry="1" transform="matrix(94.55513 -100.33946 336.76387 317.35022 677.4 51.8)"/><ellipse fill="#96a584" fill-opacity=".5" rx="1" ry="1" transform="matrix(67.61163 -39.6675 2.17436 3.7061 481.4 592.6)"/><path fill="#61b498" fill-opacity=".5" d="M145.9 321.6l-32.1-49.8 143.5 310.4L221 489z"/></g></svg>