<svg xmlns="http://www.w3.org/2000/svg" viewBox="0 0 801 1100"><filter id="b"><feGaussianBlur stdDeviation="12" /></filter><path fill="#e0e8ed" d="M0 0h799v1100H0z"/><g filter="url(#b)" transform="translate(2.1 2.1) scale(4.29688)" fill-opacity=".5"><path fill="#b8a7ad" d="M26 107.4l8.3-1.7 110 118.6-92.8-90.5z"/><path fill="#abaaac" d="M103.8 107.9l43.7 43.8L104 98 26.5 49.2z"/><ellipse fill="#f7fcfe" rx="1" ry="1" transform="rotate(179.2 89.3 57.8) scale(17.31253 183.46446)"/><path fill="#9ca1a2" d="M100 31.1l-11.6-1.9 32 16.3 39 44z"/><ellipse fill="#929394" rx="1" ry="1" transform="rotate(-123.1 109.5 35) scale(35.7968 1.45655)"/><ellipse fill="#c21239" cx="16" cy="192" rx="1" ry="36"/><ellipse fill="#77b79e" rx="1" ry="1" transform="matrix(.5665 -.82407 21.4251 14.72831 88.5 54.3)"/><path fill="#3e8e6d" d="M158.3 127.7l-23.5-34.8.9-.6 23.5 34.8z"/></g></svg>