<svg xmlns="http://www.w3.org/2000/svg" viewBox="0 0 787 1100"><filter id="b"><feGaussianBlur stdDeviation="12" /></filter><path fill="#e4e7ed" d="M0 0h786v1100H0z"/><g filter="url(#b)" transform="translate(2.1 2.1) scale(4.29688)" fill-opacity=".5"><ellipse fill="#c9b2c2" rx="1" ry="1" transform="matrix(56.40701 -95.37905 15.69799 9.28376 94.2 131.2)"/><path fill="#cfadbb" d="M137 222l-62-58 28-58z"/><path fill="#ca9fad" d="M57.7 29.2l.2 11.9-7.6 59.8-16.1-69.3z"/><ellipse fill="#f5fdff" cx="170" cy="205" rx="37" ry="182"/><ellipse fill="#eefeff" rx="1" ry="1" transform="matrix(-26.22996 15.45265 -25.07391 -42.56148 92.5 35.4)"/><ellipse fill="#ebfbfc" cx="88" cy="240" rx="29" ry="65"/><path fill="#e5a3ad" d="M68.4 209.7l3.6 9.7-14 13.4L46.5 194z"/><ellipse fill="#e7f6fc" rx="1" ry="1" transform="matrix(-14.27339 -181.43944 25.8024 -2.02981 17.5 134.6)"/></g></svg>