<svg xmlns="http://www.w3.org/2000/svg" viewBox="0 0 783 1100"><filter id="c"><feGaussianBlur stdDeviation="55" /></filter><path fill="#e0e1e8" d="M0 0h782v1100H0z"/><g filter='url(#c)' fill-opacity='.5'><ellipse fill="#e09eb0" fill-opacity=".5" rx="1" ry="1" transform="matrix(-40.52364 7.51061 -44.77687 -241.59437 212.5 588.3)"/><path fill="#f6ffff" fill-opacity=".5" d="M-1.3 111l-9-171.7 875.3-46L874 65z"/><path fill="#e3b9c6" fill-opacity=".5" d="M272.1 448.5L465.7-21l-98.5 416.9 48.2 473z"/><ellipse fill="#e7ffff" fill-opacity=".5" rx="1" ry="1" transform="rotate(89.9 69.6 674.1) scale(692.41135 56.18833)"/><ellipse fill="#d7b9ca" fill-opacity=".5" rx="1" ry="1" transform="matrix(59.15744 -10.58928 31.62873 176.69516 639 873.5)"/><path fill="#aaf0ee" fill-opacity=".5" d="M225.6 367.4l73 459.7 34.4-305z"/><path fill="#c7a8c8" fill-opacity=".5" d="M173.3 1034.4l-64.2 5.7-20.3-231.2 64.2-5.6z"/><path fill="#e5a39f" fill-opacity=".5" d="M251.4 92.4h43v180.5h-43z"/></g></svg>