<svg xmlns="http://www.w3.org/2000/svg" viewBox="0 0 767 1100"><filter id="b"><feGaussianBlur stdDeviation="12" /></filter><path fill="#e3e2e4" d="M0 0h764v1100H0z"/><g filter="url(#b)" transform="translate(2.1 2.1) scale(4.29688)" fill-opacity=".5"><ellipse fill="#bfb8c3" rx="1" ry="1" transform="matrix(17.28723 -1.37654 6.17616 77.56286 101.5 103.4)"/><ellipse fill="#fff" cx="173" cy="78" rx="21" ry="177"/><ellipse fill="#fff" rx="1" ry="1" transform="matrix(-130.66264 9.82457 -1.63328 -21.72196 90.7 2.6)"/><ellipse fill="#fffffe" cx="2" cy="131" rx="38" ry="53"/><path fill="#e26477" d="M41.9 205.2l23.6-47.5.6-8.4-33.8 74.4z"/><path fill="#db435a" d="M59.4 221.4l36.3-71.3 1 .5-36.4 71.3z"/><path fill="#4548ad" d="M109 159h2v64h-2z"/><ellipse fill="#d1d4d8" rx="1" ry="1" transform="matrix(-4.66406 -73.44932 26.18492 -1.66275 138 171)"/></g></svg>