<svg xmlns="http://www.w3.org/2000/svg" viewBox="0 0 756 550"><filter id="c"><feGaussianBlur stdDeviation="55" /></filter><path fill="#e6e8ec" d="M0 0h756v549H0z"/><g filter='url(#c)' fill-opacity='.5'><path fill="#000051" fill-opacity=".5" d="M604.2 314.3L512 382l-15.6-53.3L593 281z"/><path fill="#745377" fill-opacity=".5" d="M167.6 173.4l69.8-24L296 319.7l-69.8 24z"/><path fill="#c10101" fill-opacity=".5" d="M392.2 333l-62.5-37.4 47.2-36 30.4 24z"/><ellipse fill="#403d56" fill-opacity=".5" rx="1" ry="1" transform="matrix(1.86204 -46.18789 22.48973 .90666 164.8 410)"/><path fill-opacity=".5" d="M754.5 1.5h3v549.3h-3z"/><ellipse fill="#00a1e7" fill-opacity=".5" rx="1" ry="1" transform="matrix(-3.63601 -20.0077 41.80834 -7.59786 244.3 298.5)"/><ellipse fill="#fff" fill-opacity=".5" rx="1" ry="1" transform="matrix(-548.98904 -13.63795 2.38702 -96.08832 198.3 60)"/><path fill="#1c1f1c" fill-opacity=".5" d="M471 240.7L459.2 276l-20.7-29.5z"/></g></svg>