<svg xmlns="http://www.w3.org/2000/svg" viewBox="0 0 756 550"><filter id="c"><feGaussianBlur stdDeviation="55" /></filter><path fill="#e5e3e4" d="M0 0h756v549H0z"/><g filter='url(#c)' fill-opacity='.5'><path fill="#5c5078" fill-opacity=".5" d="M688.2 434.3L489.8 403l18-113.7 198.4 31.4z"/><path fill="#ba7b6e" fill-opacity=".5" d="M42.8 391.3l82.7-271.7 124 239.2z"/><path fill="#a48b75" fill-opacity=".5" d="M400.1 223l-129.9 26.5 73.8 133z"/><path fill="#aa0a00" fill-opacity=".5" d="M651.8 364.3l37.5-12.6-7 65-56.5 9.4z"/><ellipse fill="#f8ffff" fill-opacity=".5" rx="1" ry="1" transform="matrix(162.61362 341.12834 -73.16995 34.87963 665 146.8)"/><ellipse fill="#fff" fill-opacity=".5" rx="1" ry="1" transform="matrix(-4.77244 88.12056 -391.84573 -21.2216 394 512.4)"/><path fill="#eb6a18" fill-opacity=".5" d="M568.5 146.2l-65-8.9 17.7 62z"/><ellipse fill="#f4f5fa" fill-opacity=".5" rx="1" ry="1" transform="matrix(44.2931 -77.15623 288.15116 165.41903 308.3 147)"/></g></svg>