<svg xmlns="http://www.w3.org/2000/svg" viewBox="0 0 398 550"><filter id="b"><feGaussianBlur stdDeviation="12" /></filter><path fill="#dfdfdf" d="M0 0h397v550H0z"/><g filter="url(#b)" transform="translate(1 1) scale(2.14844)" fill-opacity=".5"><ellipse fill="#a7a7a7" rx="1" ry="1" transform="rotate(144.7 20.8 80.7) scale(45.44986 64.14961)"/><path fill="#898989" d="M40.2 212.4l-9.4-107.6 13-1.2 9.4 107.6z"/><ellipse fill="#fafafa" rx="1" ry="1" transform="matrix(31.20987 1.91381 -11.26188 183.65503 165.5 145.9)"/><ellipse fill="#fcfcfc" cx="46" cy="238" rx="102" ry="28"/><ellipse fill="#f7f8f8" cx="9" cy="119" rx="26" ry="126"/><path fill="#999" d="M140.9 132.3l-44 67.2 16-83.8 39.2 9.7z"/><path fill="#fff" d="M131.3 93.4L97 85.2l8.1 36.8 27.6-8.6z"/><path fill="#4e4e4e" d="M67 187h6v19h-6z"/></g></svg>