<svg xmlns="http://www.w3.org/2000/svg" viewBox="0 0 388 550"><filter id="b"><feGaussianBlur stdDeviation="12" /></filter><path fill="#e0e0e0" d="M0 0h388v550H0z"/><g filter="url(#b)" transform="translate(1 1) scale(2.14844)" fill-opacity=".5"><path fill="#9e9e9e" d="M-16 140l212 30-93 30z"/><ellipse fill="#fefefe" rx="1" ry="1" transform="matrix(46.59798 -37.34066 28.98907 36.17592 143.3 239.9)"/><path fill="#606060" d="M37.8 176.6L4 157.9l5-25.4 8.1 29.4z"/><ellipse fill="#fdfdfd" cx="167" cy="62" rx="31" ry="51"/><ellipse fill="#fcfdfc" rx="1" ry="1" transform="rotate(-50.2 243.2 91) scale(70.17635 18.64064)"/><path fill="#6e6e6e" d="M40.3 156.5l4.8-9.9 30.6 15-4.8 9.8z"/><path fill="#f9f9f9" d="M2.3 82L-3.1 4.2 55.7 0l5.4 77.8z"/><path fill="#fefefe" d="M90 165h28v24H90z"/></g></svg>