<svg xmlns="http://www.w3.org/2000/svg" viewBox="0 0 412 550"><filter id="b"><feGaussianBlur stdDeviation="12" /></filter><path fill="#c1c1c1" d="M0 0h412v550H0z"/><g filter="url(#b)" transform="translate(1 1) scale(2.14844)" fill-opacity=".5"><path fill="#fff" d="M-9.7 25.8l-.5-28 204-3.6.4 28z"/><path fill="#8f8f8f" d="M13 55h68v176H13z"/><ellipse fill="#fff" rx="1" ry="1" transform="rotate(92.4 11 176.4) scale(145.77922 14.02551)"/><ellipse fill="#fff" rx="1" ry="1" transform="matrix(-181.36768 1.2083 -.10239 -15.36845 94 255)"/><ellipse fill="#989898" rx="1" ry="1" transform="matrix(31.20484 -36.46236 20.74217 17.75135 137 173.3)"/><ellipse fill="#919191" rx="1" ry="1" transform="matrix(-46.25622 -17.7561 8.20488 -21.37445 66.3 52.3)"/><ellipse fill="#fff" cx="3" cy="140" rx="8" ry="191"/><path fill="#fff" d="M80 153l34-59-9 74z"/></g></svg>