<svg xmlns="http://www.w3.org/2000/svg" viewBox="0 0 400 550"><filter id="c"><feGaussianBlur stdDeviation="55" /></filter><path fill="#e4e4e4" d="M0 0h399v550H0z"/><g filter='url(#c)' fill-opacity='.5'><ellipse fill="#f4f4f4" fill-opacity=".5" rx="1" ry="1" transform="rotate(58.7 -432 244.3) scale(107.35897 191.55891)"/><path fill="#353535" fill-opacity=".5" d="M404 0v2.1H-6.5V0z"/><ellipse fill="#f4f4f4" fill-opacity=".5" rx="1" ry="1" transform="matrix(31.73433 116.80176 -50.37955 13.68782 62.9 200.5)"/><path fill="#d4d4d4" fill-opacity=".5" d="M110.6 325.5l154.7-19.3 30.1-199.9z"/><ellipse fill="#c9c9c9" fill-opacity=".5" rx="1" ry="1" transform="matrix(-18.31573 -6.19953 19.19357 -56.70497 164.8 176.1)"/><path fill="#bababa" fill-opacity=".5" d="M364 493.7L316.8 517v-29l42.9-6.3z"/><ellipse fill="#f1f1f1" fill-opacity=".5" rx="1" ry="1" transform="matrix(4.88605 36.9721 -117.09897 15.47523 87.2 44.9)"/><path fill="#888" fill-opacity=".5" d="M312 139.8l-5.3 75-2-.1 5.2-75z"/></g></svg>