<svg xmlns="http://www.w3.org/2000/svg" viewBox="0 0 756 550"><filter id="b"><feGaussianBlur stdDeviation="12" /></filter><path fill="#d2d7cf" d="M0 0h756v549H0z"/><g filter="url(#b)" transform="translate(1.5 1.5) scale(2.95313)" fill-opacity=".5"><ellipse fill="#8a9a84" rx="1" ry="1" transform="matrix(-92.9819 -11.08742 5.57577 -46.75984 120.5 79.6)"/><ellipse fill="#fff" rx="1" ry="1" transform="matrix(-121.5171 6.03223 -.8634 -17.39303 144.4 17.4)"/><ellipse fill="#fff" rx="1" ry="1" transform="matrix(.9019 31.24265 -208.24627 6.0115 130.1 183.8)"/><path fill="#001310" d="M155 94.3l-46.6-23.8-4.7 2L90 84.2z"/><ellipse fill="#92767c" cx="129" cy="143" rx="89" ry="9"/><ellipse fill="#fff" rx="1" ry="1" transform="matrix(19.08242 -1.46831 15.85024 205.99227 9 59.8)"/><ellipse fill="#699450" cx="121" cy="45" rx="87" ry="9"/><path fill="#fff" d="M239 179.6L214.6 6.3l56.4-8 24.4 173.4z"/></g></svg>