<svg xmlns="http://www.w3.org/2000/svg" viewBox="0 0 756 550"><filter id="b"><feGaussianBlur stdDeviation="12" /></filter><path fill="#cdcacc" d="M0 0h756v549H0z"/><g filter="url(#b)" transform="translate(1.5 1.5) scale(2.95313)" fill-opacity=".5"><ellipse fill="#b0a7a4" cx="174" cy="79" rx="76" ry="76"/><ellipse fill="#fff" cx="154" cy="185" rx="254" ry="28"/><path fill="#625f68" d="M178.9 91L162.5 9.5l-62.4 22.8 89.2-4.5z"/><path fill="#4e84a8" d="M6 25.5l32.8 104.7-9.2-100.4L38 11.3z"/><path fill="#81686d" d="M118.7 145l30-9.4L115 69.1l1.5 91z"/><ellipse fill="#eef1f0" rx="1" ry="1" transform="matrix(21.2216 -57.06314 18.86604 7.01622 207 127.2)"/><ellipse fill="#f6e8e9" rx="1" ry="1" transform="matrix(22.95338 19.7453 -45.5667 52.97006 64.6 125.6)"/><ellipse fill="#fff" rx="1" ry="1" transform="matrix(-11.38925 -1.72948 9.97274 -65.67404 255 125.7)"/></g></svg>