<svg xmlns="http://www.w3.org/2000/svg" viewBox="0 0 756 550"><filter id="b"><feGaussianBlur stdDeviation="12" /></filter><path fill="#e4e2e1" d="M0 0h756v549H0z"/><g filter="url(#b)" transform="translate(1.5 1.5) scale(2.95313)" fill-opacity=".5"><ellipse fill="#922509" rx="1" ry="1" transform="matrix(.73155 -17.45433 80.90255 3.39082 123.3 96.6)"/><ellipse fill="#8ed8e5" rx="1" ry="1" transform="matrix(77.80707 2.19212 -.62796 22.28894 125.7 59.9)"/><ellipse fill="#fff" rx="1" ry="1" transform="rotate(-85.9 172.5 -13) scale(47.78145 181.1867)"/><path fill="#feffff" d="M.9-3l49-1L53 181l-49 1zM271 1l-22 180L179 0z"/><path fill="#8a4330" d="M51 85l92 1-89 24z"/><ellipse fill="#f6f9fa" cx="139" cy="22" rx="115" ry="24"/><path fill="#c28a77" d="M140 83h66v33h-66z"/></g></svg>