<svg xmlns="http://www.w3.org/2000/svg" viewBox="0 0 756 550"><filter id="b"><feGaussianBlur stdDeviation="12" /></filter><path fill="#c9d1b8" d="M0 0h756v549H0z"/><g filter="url(#b)" transform="translate(1.5 1.5) scale(2.95313)" fill-opacity=".5"><ellipse fill="#44642e" rx="1" ry="1" transform="rotate(105.7 3.2 71.2) scale(52.70178 43.15593)"/><ellipse fill="#6c8342" rx="1" ry="1" transform="rotate(-6.2 959.9 -1787.5) scale(25.88726 60.7444)"/><ellipse fill="#fff" rx="1" ry="1" transform="matrix(-.35175 -22.39119 254.9686 -4.00537 106.3 15.3)"/><ellipse fill="#fff" rx="1" ry="1" transform="rotate(-93.3 138.4 44.3) scale(25.69547 255.00005)"/><ellipse fill="#fff" cx="15" cy="118" rx="15" ry="230"/><ellipse fill="#fff" cx="255" cy="96" rx="30" ry="255"/><ellipse fill="#c5ca65" rx="1" ry="1" transform="rotate(-108.9 101.5 -16) scale(39.10664 70.85692)"/><path fill="#1f3f39" d="M123.4 95.5l-77 64.8 5.4-37.2-1-11.7z"/></g></svg>