<svg xmlns="http://www.w3.org/2000/svg" viewBox="0 0 756 550"><filter id="b"><feGaussianBlur stdDeviation="12" /></filter><path fill="#c2c8c1" d="M0 0h756v549H0z"/><g filter="url(#b)" transform="translate(1.5 1.5) scale(2.95313)" fill-opacity=".5"><ellipse fill="#003e1a" rx="1" ry="1" transform="rotate(85.8 63 158.7) scale(41.37736 16.5408)"/><ellipse fill="#7b7875" rx="1" ry="1" transform="matrix(70.40759 -29.45762 22.99406 54.95882 94.7 86.5)"/><ellipse fill="#fff" cx="131" cy="168" rx="255" ry="22"/><ellipse fill="#fff" rx="1" ry="1" transform="matrix(217.71054 .9986 -.06588 14.36229 106 12.5)"/><ellipse fill="#fff" cx="253" cy="66" rx="23" ry="130"/><path fill="#fff" d="M34 201l-50-50L10-16z"/><ellipse fill="#3d3b41" rx="1" ry="1" transform="matrix(-.04377 -4.0596 52.20045 -.56286 159 30.7)"/><ellipse fill="#8f9c26" rx="1" ry="1" transform="matrix(.52675 -7.80274 60.65578 4.09477 168.4 136.2)"/></g></svg>