<svg xmlns="http://www.w3.org/2000/svg" viewBox="0 0 756 550"><filter id="c"><feGaussianBlur stdDeviation="55" /></filter><path fill="#bcb6b6" d="M0 0h756v549H0z"/><g filter='url(#c)' fill-opacity='.5'><ellipse fill="#374655" fill-opacity=".5" rx="1" ry="1" transform="matrix(-8.8462 194.80834 -114.15824 -5.1839 604 247.3)"/><ellipse fill="#fff" fill-opacity=".5" rx="1" ry="1" transform="matrix(-7.37937 68.665 -521.69872 -56.0665 295.8 532.4)"/><ellipse fill="#a85039" fill-opacity=".5" rx="1" ry="1" transform="rotate(101.5 39.2 375.5) scale(61.20386 276.96013)"/><ellipse fill="#fff" fill-opacity=".5" rx="1" ry="1" transform="rotate(177.4 230.3 14) scale(660.35683 52.74759)"/><ellipse fill="#004e90" fill-opacity=".5" rx="1" ry="1" transform="matrix(146.45292 44.93797 -13.4183 43.73025 552 121.3)"/><ellipse fill="#fff" fill-opacity=".5" rx="1" ry="1" transform="rotate(2.9 -6456.2 14858) scale(49.26846 484.22703)"/><path fill="#eff" fill-opacity=".5" d="M290.9-37L4.4 394.3l3-383.9z"/><ellipse fill="#0864a5" fill-opacity=".5" rx="1" ry="1" transform="matrix(2.4829 15.32986 -145.44852 23.55752 320.1 88.5)"/></g></svg>