<svg xmlns="http://www.w3.org/2000/svg" viewBox="0 0 388 550"><filter id="b"><feGaussianBlur stdDeviation="12" /></filter><path fill="#e0e0e0" d="M0 0h388v550H0z"/><g filter="url(#b)" transform="translate(1 1) scale(2.14844)" fill-opacity=".5"><ellipse fill="#9f9f9f" rx="1" ry="1" transform="matrix(176.29465 23.02237 -1.64606 12.60474 98.7 167.9)"/><path fill="#6a6a6a" d="M63 179l16-19 15 32z"/><ellipse fill="#fefefe" rx="1" ry="1" transform="rotate(61.5 -115.5 238.9) scale(35.68738 69.73827)"/><ellipse fill="#fefefe" rx="1" ry="1" transform="matrix(87.18805 -32.63058 6.47365 17.29743 149.2 79.3)"/><ellipse fill="#f9faf9" rx="1" ry="1" transform="matrix(17.47835 16.05755 -37.23312 40.52756 23.5 210)"/><ellipse fill="#f8f8f8" cx="18" cy="38" rx="44" ry="44"/><path fill="#616161" d="M67.3 155l-3.7 11.4-22.9-7.4 3.7-11.4z"/><ellipse fill="#898989" rx="1" ry="1" transform="rotate(83.3 -47.8 162.8) scale(3.59073 25.84575)"/></g></svg>