<?xml version="1.0" encoding="UTF-8"?>
<svg width="700pt" height="700pt" fill="white" version="1.1" viewBox="0 0 700 1400" xmlns="http://www.w3.org/2000/svg" xmlns:xlink="http://www.w3.org/1999/xlink">
 <g>
  <path d="m405.83 196.09c31.148 9.5586 52.691 28.254 63.516 43.457 6.2852 8.8164 15.555-5.3203 9.1406-18.961-2.4961-5.3125-7.2617-10.051-13.445-14.418 8.2617 3.2656 16.164 6.707 23.582 10.43 36.078 18.117 60.773 43.555 60.148 66.965-1.9023 71.711-130.5 98.734-185.78 100.88-54.93 2.1094-108.34-8.9727-146.81-25.852-38.496-16.918-62.84-41.09-67.406-64.656-2.2656-11.766-0.15625-22.75 6.4219-34.191 6.582-11.406 17.891-22.781 33.219-32.891 26.863-17.664 66.242-32.574 120.52-38.934 32.309-3.7891 67.82-0.76562 96.891 8.1758zm-58.426-32.602c-5.1836 0-8.7188 2.5312-10.727 6.0312-16.852-0.74609-34.84 1.2266-49.391 3.2422-45.664 6.3828-84.359 20.223-110.03 37.07-16.949 11.148-30.297 24.141-38.883 39.051-8.5977 14.91-12.188 32.148-8.8555 49.355 6.6445 34.391 36.719 61.215 77.848 79.27 41.09 18.051 97.258 27.871 154.19 25.891 56.91-1.9727 114.86-16.133 151.18-37.332 29.363-17.105 60.762-47.184 58.621-85.168-1.9688-34.867-29.422-62.707-68.277-82.219-38.852-19.508-98.641-35.191-155.68-35.191z" fill-rule="evenodd"/>
  <use x="70" y="653.332031" xlink:href="#f"/>
  <use x="92.832031" y="653.332031" xlink:href="#e"/>
  <use x="108.175781" y="653.332031" xlink:href="#b"/>
  <use x="129.273437" y="653.332031" xlink:href="#j"/>
  <use x="150.269531" y="653.332031" xlink:href="#a"/>
  <use x="165.140625" y="653.332031" xlink:href="#b"/>
  <use x="186.242188" y="653.332031" xlink:href="#i"/>
  <use x="219.34375" y="653.332031" xlink:href="#h"/>
  <use x="241.613281" y="653.332031" xlink:href="#g"/>
  <use x="272.722656" y="653.332031" xlink:href="#f"/>
  <use x="295.554688" y="653.332031" xlink:href="#d"/>
  <use x="317.703125" y="653.332031" xlink:href="#s"/>
  <use x="339.972656" y="653.332031" xlink:href="#d"/>
  <use x="362.121094" y="653.332031" xlink:href="#a"/>
  <use x="376.996094" y="653.332031" xlink:href="#c"/>
  <use x="70" y="684.445312" xlink:href="#r"/>
  <use x="83.535156" y="684.445312" xlink:href="#e"/>
  <use x="98.878906" y="684.445312" xlink:href="#c"/>
  <use x="120.25" y="684.445312" xlink:href="#q"/>
  <use x="163.5" y="684.445312" xlink:href="#a"/>
  <use x="178.371094" y="684.445312" xlink:href="#p"/>
  <use x="200.519531" y="684.445312" xlink:href="#b"/>
  <use x="232.453125" y="684.445312" xlink:href="#o"/>
  <use x="258.488281" y="684.445312" xlink:href="#c"/>
  <use x="279.863281" y="684.445312" xlink:href="#d"/>
  <use x="302.011719" y="684.445312" xlink:href="#n"/>
  <use x="334.992188" y="684.445312" xlink:href="#m"/>
  <use x="357.792969" y="684.445312" xlink:href="#e"/>
  <use x="373.136719" y="684.445312" xlink:href="#c"/>
  <use x="394.507812" y="684.445312" xlink:href="#l"/>
  <use x="405.171875" y="684.445312" xlink:href="#b"/>
  <use x="426.273437" y="684.445312" xlink:href="#k"/>
  <use x="444.714844" y="684.445312" xlink:href="#a"/>
 </g>
</svg>
