<?xml version="1.0" encoding="UTF-8"?>
<svg width="700pt" height="700pt" version="1.1" viewBox="0 0 700 600" xmlns="http://www.w3.org/2000/svg" xmlns:xlink="http://www.w3.org/1999/xlink">
 <g>
  <path d="m162.4 467.6c5.6016 5.6016 11.199 8.3984 19.602 8.3984 8.3984 0 14-2.8008 19.602-8.3984l148.4-148.4 148.4 148.4c5.6016 5.6016 14 8.3984 19.602 8.3984s14-2.8008 19.602-8.3984c11.199-11.199 11.199-28 0-39.199l-148.4-148.4 148.4-148.4c11.199-11.199 11.199-28 0-39.199-11.199-11.199-28-11.199-39.199 0l-148.4 148.4-148.4-148.4c-11.199-11.199-28-11.199-39.199 0-11.199 11.199-11.199 28 0 39.199l148.4 148.4-148.4 148.4c-11.199 11.203-11.199 28 0 39.203z" fill-rule="evenodd"/>
 </g>
</svg>
