<svg xmlns="http://www.w3.org/2000/svg" viewBox="0 0 389 550"><filter id="b"><feGaussianBlur stdDeviation="12" /></filter><path fill="#ece0e4" d="M0 0h388v550H0z"/><g filter="url(#b)" transform="translate(1 1) scale(2.14844)" fill-opacity=".5"><ellipse fill="#ca7e95" cx="91" cy="125" rx="63" ry="63"/><ellipse fill="#fcffff" rx="1" ry="1" transform="matrix(179.99958 -.38816 .08412 39.0068 115 226)"/><path fill="#fcffff" d="M-24.3 52.1l9-84.5L234.2-6l-9 84.5z"/><ellipse fill="#f9fffd" cx="166" cy="128" rx="17" ry="173"/><ellipse fill="#f4fefa" rx="1" ry="1" transform="matrix(24.9917 -136.98755 21.6157 3.94352 0 157.7)"/><ellipse fill="#f5fbf8" rx="1" ry="1" transform="matrix(63.70791 57.16184 -12.03599 13.41433 32.5 182.7)"/><ellipse fill="#f7fbf9" rx="1" ry="1" transform="matrix(48.0459 45.7535 -13.37156 14.04152 153.1 74)"/><ellipse fill="#f6faf8" rx="1" ry="1" transform="matrix(40.64728 -56.98538 19.4207 13.85265 146.5 195.1)"/></g></svg>