<svg xmlns="http://www.w3.org/2000/svg" viewBox="0 0 401 550"><filter id="b"><feGaussianBlur stdDeviation="12" /></filter><path fill="#e5e9f1" d="M0 0h399v550H0z"/><g filter="url(#b)" transform="translate(1 1) scale(2.14844)" fill-opacity=".5"><ellipse fill="#bfb4d0" rx="1" ry="1" transform="matrix(12.6137 50.9696 -49.80008 12.32427 90.3 108)"/><ellipse fill="#f3fbfc" cx="142" cy="27" rx="185" ry="35"/><ellipse fill="#f3fafc" rx="1" ry="1" transform="rotate(178.1 62.5 116) scale(182.26854 47.52686)"/><ellipse fill="#f5fcfc" rx="1" ry="1" transform="matrix(-26.3634 2.58495 -7.42198 -75.69524 164.6 122)"/><path fill="#c9c5da" d="M135 71L31 153l103 4z"/><path fill="#b1b7b4" d="M55 176h66v8H55z"/><ellipse fill="#eef6fb" rx="1" ry="1" transform="matrix(-2.02855 -79.58624 21.42818 -.54618 24.3 118.1)"/><path fill="#b3b0c7" d="M102.2 66l36.8-5-2 21.8-22.7-19.2z"/></g></svg>