<svg xmlns="http://www.w3.org/2000/svg" viewBox="0 0 774 550"><filter id="b"><feGaussianBlur stdDeviation="12" /></filter><path fill="#ced7de" d="M0 0h774v547H0z"/><g filter="url(#b)" transform="translate(1.5 1.5) scale(3.02344)" fill-opacity=".5"><ellipse fill="#8c9092" cx="83" cy="86" rx="67" ry="67"/><ellipse fill="#fff" rx="1" ry="1" transform="matrix(253.81004 -9.3068 .97743 26.65586 134.1 171)"/><ellipse fill="#fdffff" rx="1" ry="1" transform="matrix(37.55226 -5.14271 26.0124 189.9435 255 50.5)"/><ellipse fill="#fbffff" rx="1" ry="1" transform="rotate(-2.7 219.2 -1397) scale(255 19.08487)"/><ellipse fill="#fff" rx="1" ry="1" transform="matrix(-17.2644 2.6396 -31.32744 -204.89894 0 84.8)"/><ellipse fill="#8294ab" rx="1" ry="1" transform="matrix(-26.14185 1.04681 -1.85506 -46.3262 125.2 83.6)"/><ellipse fill="#b2cdea" cx="191" cy="82" rx="44" ry="44"/><path fill="#f5fcff" d="M271 68l-30 128h-84z"/></g></svg>