<svg xmlns="http://www.w3.org/2000/svg" viewBox="0 0 447 550"><filter id="b"><feGaussianBlur stdDeviation="12" /></filter><path fill="#eff0f0" d="M0 0h446v550H0z"/><g filter="url(#b)" transform="translate(1 1) scale(2.14844)" fill-opacity=".5"><ellipse fill="#cdd0d2" rx="1" ry="1" transform="rotate(84.2 -7.6 110.3) scale(52.92506 46.93894)"/><ellipse fill="#fcfbfb" rx="1" ry="1" transform="rotate(89.6 -56.5 82.8) scale(207 31.8483)"/><path fill="#cfcece" d="M134.3 168.6l-88.8 9.5 86.4.4 5.7 3.3z"/><path fill="#dcdedf" d="M56 58h90v101H56z"/><ellipse fill="#f9f8f8" cx="114" cy="24" rx="86" ry="34"/><ellipse fill="#f8f8f8" rx="1" ry="1" transform="matrix(89.97511 .18668 -.08388 40.42647 107.4 220.8)"/><path fill="#aeaeae" d="M65.6 184.1l10.1-7.2-11-5 1.2 3.4z"/><path fill="#f5f4f4" d="M146 41h58v212h-58z"/></g></svg>