<svg xmlns="http://www.w3.org/2000/svg" viewBox="0 0 1827 2200"><filter id="b"><feGaussianBlur stdDeviation="12" /></filter><path fill="#f2efef" d="M0 0h1821v2200H0z"/><g filter="url(#b)" transform="translate(4.3 4.3) scale(8.59375)" fill-opacity=".5"><ellipse fill="#c8c5c4" rx="1" ry="1" transform="matrix(5.5515 69.516 -74.5228 5.95134 106.2 126.5)"/><ellipse fill="#fff" rx="1" ry="1" transform="rotate(85.6 27.5 67.5) scale(44.61142 211.00002)"/><ellipse fill="#fff" rx="1" ry="1" transform="matrix(152.53394 17.07924 -4.83054 43.14138 97.8 217.2)"/><ellipse fill="#afafad" rx="1" ry="1" transform="matrix(-16.12325 -5.1146 8.37844 -26.4122 156.5 110.2)"/><path fill="#a2a19d" d="M34.2 119.5l26.7 10-7.2-59L32 109z"/><path fill="#fff" d="M227 260L219 6l-81 261z"/><ellipse fill="#ebe7e7" cx="125" cy="79" rx="28" ry="28"/><path fill="#b6b4b2" d="M92 125.4l8.7-14.5 39.4 23.7-8.8 14.5z"/></g></svg>