<svg xmlns="http://www.w3.org/2000/svg" viewBox="0 0 1700 2338"><filter id="c"><feGaussianBlur stdDeviation="55" /></filter><path fill="#e6e6e4" d="M0 0h1698v2338H0z"/><g filter='url(#c)' fill-opacity='.5'><ellipse fill="#b0961e" fill-opacity=".5" rx="1" ry="1" transform="rotate(-109 728.6 82.2) scale(134.08013 239.77169)"/><path fill="#323233" fill-opacity=".5" d="M433.8 352.3L301 371.7l106.6 277.5L553 315z"/><ellipse fill="#008e49" fill-opacity=".5" rx="1" ry="1" transform="rotate(85.9 -227 1570.2) scale(56.2472 202.55944)"/><path fill="#009d37" fill-opacity=".5" d="M433.8 1584.5L242 1703.3l356.2 27.4z"/><ellipse fill-opacity=".5" rx="1" ry="1" transform="matrix(-59.22268 -5.27212 7.0912 -79.6567 947.3 1120.1)"/><path fill="#505356" fill-opacity=".5" d="M735.2 625.6L607.3 461.2l283.1 100.5z"/><path fill="#fff" fill-opacity=".5" d="M-22.8 2196.4L41-141.6l529.7 1196.4z"/><path fill="#de3e64" fill-opacity=".5" d="M1268 1047.2l-97.6 654.4-36.5 84.5 94.6-76z"/></g></svg>