<svg xmlns="http://www.w3.org/2000/svg" viewBox="0 0 1700 2338"><filter id="b"><feGaussianBlur stdDeviation="12" /></filter><path fill="#e4e2dc" d="M0 0h1698v2338H0z"/><g filter="url(#b)" transform="translate(4.6 4.6) scale(9.13281)" fill-opacity=".5"><ellipse fill="#9d9e76" rx="1" ry="1" transform="matrix(-30.50346 -35.25107 49.44577 -42.78642 80.5 125.2)"/><ellipse fill="#006141" rx="1" ry="1" transform="matrix(.6213 10.45766 -16.00287 .95075 88.5 140.5)"/><path fill="#398769" d="M95 83h68v16H95z"/><ellipse fill="#fff9f9" cx="139" cy="222" rx="87" ry="87"/><ellipse fill="#ffecff" rx="1" ry="1" transform="matrix(10.92044 -13.27205 41.36322 34.03427 36.5 130.8)"/><ellipse fill="#35384b" rx="1" ry="1" transform="matrix(26.18838 10.76224 -2.82144 6.86559 37.5 163.7)"/><ellipse fill="#008a5f" rx="1" ry="1" transform="matrix(18.99521 5.0815 -2.34767 8.77584 58.2 100.5)"/><ellipse fill="#fff" cx="143" cy="18" rx="151" ry="41"/></g></svg>