<svg xmlns="http://www.w3.org/2000/svg" viewBox="0 0 1700 2338"><filter id="c"><feGaussianBlur stdDeviation="55" /></filter><path fill="#d4cecf" d="M0 0h1698v2338H0z"/><g filter='url(#c)' fill-opacity='.5'><ellipse fill="#9d0000" fill-opacity=".5" rx="1" ry="1" transform="matrix(-194.56125 180.74948 -155.50866 -167.39168 284.5 1896.4)"/><path fill="#002062" fill-opacity=".5" d="M713.3 752.3L458.8 628.2l152.2-312 254.4 124.2z"/><path fill="#a70000" fill-opacity=".5" d="M1310.6 1356.2l292.2 182.7-127.9 794.5z"/><ellipse fill="#159ecc" fill-opacity=".5" rx="1" ry="1" transform="rotate(40 -1421.6 2202) scale(324.64647 210.49143)"/><ellipse fill="#003848" fill-opacity=".5" rx="1" ry="1" transform="matrix(-78.92955 -192.45013 79.45135 -32.58537 503.2 1503.5)"/><ellipse fill="#fff" fill-opacity=".5" rx="1" ry="1" transform="matrix(-140.8818 346.95004 -1565.43517 -635.6573 1008 99.4)"/><ellipse fill="#f8223c" fill-opacity=".5" rx="1" ry="1" transform="rotate(-93.2 1072.3 -233.2) scale(263.02507 102.86804)"/><ellipse fill="#fff" fill-opacity=".5" rx="1" ry="1" transform="rotate(8.8 -4609.7 1447.6) scale(263.2078 1081.19719)"/></g></svg>