<svg xmlns="http://www.w3.org/2000/svg" viewBox="0 0 1700 2338"><filter id="c"><feGaussianBlur stdDeviation="55" /></filter><path fill="#ececec" d="M0 0h1698v2338H0z"/><g filter='url(#c)' fill-opacity='.5'><ellipse fill-opacity=".5" rx="1" ry="1" transform="matrix(10.13016 -414.76322 25.00368 .61069 817.8 591.3)"/><ellipse fill-opacity=".5" rx="1" ry="1" transform="matrix(-20.37782 -15.71715 162.95807 -211.28073 674.8 479.8)"/><path fill="#1e1f1f" fill-opacity=".5" d="M963.5 1155.3l36.5 347 164.4-200.9z"/><path fill="#202121" fill-opacity=".5" d="M647.5 1751.2l109.8-516 127.5-958.7L768.1 1467z"/><path fill="#4a4a4a" fill-opacity=".5" d="M438.7 1406.6l208.5 333.1-141.6-98.3-56.4-186.4z"/><path fill-opacity=".5" d="M740 1508l30 20.9-131 187-30-21z"/><path fill="#383938" fill-opacity=".5" d="M776.5 292.7l341 420.4-283.2-421-372.5 546.4z"/><path fill="#646565" fill-opacity=".5" d="M993.6 1535.9l153.2-234.2-95.3 36.7 8.3 479.3z"/></g></svg>