<svg xmlns="http://www.w3.org/2000/svg" viewBox="0 0 1700 2338"><filter id="c"><feGaussianBlur stdDeviation="55" /></filter><path fill="#f1eeed" d="M0 0h1698v2338H0z"/><g filter='url(#c)' fill-opacity='.5'><ellipse fill="#d42043" fill-opacity=".5" rx="1" ry="1" transform="matrix(11.41735 15.0418 -219.25823 166.42605 778.2 1864.4)"/><path fill="#cb0c35" fill-opacity=".5" d="M1007.5 792L496.9 992.6l14.4 197.1 83.4-271.8z"/><path fill="#d76a77" fill-opacity=".5" d="M981.8 570.8L589 424.7l-82.2-191.8z"/><path fill="#343738" fill-opacity=".5" d="M4.6 2333.4h1698.7v9.2H4.6z"/><path fill="#dc7489" fill-opacity=".5" d="M1056.4 1701l-178.2-306.7-357.9-100 3.5-162.7z"/><ellipse fill="#fbfefe" fill-opacity=".5" rx="1" ry="1" transform="matrix(-143.14704 1299.60673 -382.88111 -42.17299 1385.7 993.3)"/><path fill="#d2001f" fill-opacity=".5" d="M972.6 634.7l-18.2 137-100.5 73z"/><path fill="#d2092e" fill-opacity=".5" d="M599.7 2185.2l-53.6 12.8 93.2-241.7-100.3 115z"/></g></svg>