<svg xmlns="http://www.w3.org/2000/svg" viewBox="0 0 1700 2338"><filter id="c"><feGaussianBlur stdDeviation="55" /></filter><path fill="#dad5d6" d="M0 0h1698v2338H0z"/><g filter='url(#c)' fill-opacity='.5'><path fill="#0d1312" fill-opacity=".5" d="M570.8 1264.9l237.5-511.4 456.6-310.6z"/><path fill-opacity=".5" d="M1518.5 1272.9l57-228.8-56.2-307.7-123-177.6z"/><path fill="#354245" fill-opacity=".5" d="M315 1758l602.8-319.6H169z"/><path fill-opacity=".5" d="M355 786.3l47 28.2-272.9 454-47-28.1zm949.4 433l-120.1 81.7 214.4-264.3-793 616z"/><path fill="#212626" fill-opacity=".5" d="M887.3 687l-522 608.5 721-603.2-683.9 771.8z"/><ellipse fill="#080d0e" fill-opacity=".5" rx="1" ry="1" transform="matrix(311.28447 -206.4176 14.7516 22.2459 1168.3 1577.9)"/><path fill="#030b0b" fill-opacity=".5" d="M381.6 764.4l625.3-254.2-792.1 443-105.4 291z"/></g></svg>