<svg xmlns="http://www.w3.org/2000/svg" viewBox="0 0 400 550"><filter id="b"><feGaussianBlur stdDeviation="12" /></filter><path fill="#e9e9e9" d="M0 0h399v550H0z"/><g filter="url(#b)" transform="translate(1 1) scale(2.14844)" fill-opacity=".5"><path fill="#636362" d="M126.2 38.5L88.5 48.6l-6.7-25.1 37.7-10.1z"/><path d="M160.8 69.6l-.6 29-7-.2.6-29z"/><path fill="#999" d="M106.9 34L73.3 13.5l20.4 50 7.3 31z"/><ellipse fill="#fff" rx="1" ry="1" transform="rotate(-145.4 50.5 109.2) scale(128.4508 31.00045)"/><ellipse fill="#fefefe" rx="1" ry="1" transform="matrix(25.29697 -56.83525 35.46098 15.78343 19 59.7)"/><path fill="#9d9d9d" d="M121.4 173l12.4 6.3 11.5-17.3-24-.4z"/><ellipse fill="#bfbfbf" cx="140" cy="85" rx="14" ry="24"/><path fill="#bebebe" d="M20 149l20-48-4 94z"/></g></svg>