<svg xmlns="http://www.w3.org/2000/svg" viewBox="0 0 400 550"><filter id="b"><feGaussianBlur stdDeviation="12" /></filter><path fill="#e6e6e6" d="M0 0h399v550H0z"/><g filter="url(#b)" transform="translate(1 1) scale(2.14844)" fill-opacity=".5"><ellipse fill="#535352" cx="66" cy="83" rx="19" ry="15"/><ellipse fill="#717170" rx="1" ry="1" transform="matrix(-1.52348 -45.563 7.3242 -.2449 161.5 82)"/><path fill="#a0a09f" d="M106 77l54-36-17 64z"/><ellipse fill="#fff" rx="1" ry="1" transform="matrix(-5.35834 -184.92238 27.84772 -.80692 24.7 171.7)"/><path fill="#7b7b79" d="M58.4 32.2L48.4 86l6.4 50.6 8.8-114.5z"/><path fill="#1a1a18" d="M163 60h3v52h-3z"/><ellipse fill="#f9faf9" rx="1" ry="1" transform="matrix(-181.30249 36.8023 -12.34055 -60.79437 115.7 255)"/><ellipse fill="#fcfcfc" rx="1" ry="1" transform="matrix(-.2907 18.50552 -100.08067 -1.5722 96.6 19.5)"/></g></svg>