<svg xmlns="http://www.w3.org/2000/svg" viewBox="0 0 400 550"><filter id="b"><feGaussianBlur stdDeviation="12" /></filter><path fill="#e3e3e3" d="M0 0h399v550H0z"/><g filter="url(#b)" transform="translate(1 1) scale(2.14844)" fill-opacity=".5"><ellipse fill="#969695" rx="1" ry="1" transform="matrix(-33.2292 -2.55685 5.21487 -67.77334 95.1 85.9)"/><ellipse fill="#fff" rx="1" ry="1" transform="matrix(-2.00591 -21.22036 38.47729 -3.63717 54.7 97)"/><ellipse fill="#fdfdfd" rx="1" ry="1" transform="matrix(-7.64934 170.06091 -30.34146 -1.36476 25.6 147.4)"/><path fill="#494948" d="M136 36h8v28h-8z"/><path fill="#6d6e6c" d="M129.2 200.5l-18.5-4.6 4.1-16.4 18.5 4.6z"/><ellipse fill="#969696" rx="1" ry="1" transform="rotate(-103.3 69.7 -9) scale(22.91967 33.98861)"/><ellipse fill="#fafbfa" cx="104" cy="227" rx="185" ry="31"/><path fill="#b0b1b0" d="M35.3 108.8l55.5 23.4-24.5 27.9-43.8-23.4z"/></g></svg>