<svg xmlns="http://www.w3.org/2000/svg" viewBox="0 0 400 550"><filter id="b"><feGaussianBlur stdDeviation="12" /></filter><path fill="#e7e7e7" d="M0 0h399v550H0z"/><g filter="url(#b)" transform="translate(1 1) scale(2.14844)" fill-opacity=".5"><path d="M89 101.4l-1 24-23-.8 1-24z"/><ellipse fill="#9c9c9b" rx="1" ry="1" transform="matrix(23.15176 24.65412 -13.0008 12.20857 104.4 63.8)"/><ellipse fill="#a0a1a0" rx="1" ry="1" transform="matrix(-15.36205 -.37544 .59877 -24.50017 157.9 91.3)"/><ellipse fill="#fbfbfb" rx="1" ry="1" transform="matrix(50.78464 -38.54764 88.3009 116.33213 41.9 189.4)"/><ellipse fill="#cdcdcd" cx="72" cy="69" rx="33" ry="33"/><path fill="#1c1c1c" d="M168 75l-24 5 4-9z"/><ellipse fill="#fff" rx="1" ry="1" transform="rotate(-5.5 253 -447.1) scale(115.00844 16.92998)"/><path fill="#bcbcbb" d="M127 132l58-1-10 44z"/></g></svg>