<svg xmlns="http://www.w3.org/2000/svg" viewBox="0 0 400 550"><filter id="c"><feGaussianBlur stdDeviation="55" /></filter><path fill="#c5c5c5" d="M0 0h399v550H0z"/><g filter='url(#c)' fill-opacity='.5'><ellipse fill="#515151" fill-opacity=".5" rx="1" ry="1" transform="matrix(124.41493 -20.07434 14.41906 89.36515 318.9 442.3)"/><ellipse fill="#fefffe" fill-opacity=".5" rx="1" ry="1" transform="matrix(-121.92533 -34.39973 107.92544 -382.5276 1 283.1)"/><path fill="#1e1e1d" fill-opacity=".5" d="M311.8 209.8l-.5 27.9-156.8-2.7.4-28z"/><path fill="#484847" fill-opacity=".5" d="M91.3 359.9h36.5v182.6H91.3z"/><ellipse fill="#fff" fill-opacity=".5" rx="1" ry="1" transform="matrix(247.02763 -8.6264 1.7613 50.43709 267 144.5)"/><path fill="#616160" fill-opacity=".5" d="M121.4 355.6L241.7 493l-45.1-172z"/><path fill="#515251" fill-opacity=".5" d="M312.6 325.5h55.9v204h-55.9z"/><ellipse fill="#dcdcdb" fill-opacity=".5" rx="1" ry="1" transform="rotate(25.9 -682 742) scale(46.82561 59.92942)"/></g></svg>