<svg xmlns="http://www.w3.org/2000/svg" viewBox="0 0 400 550"><filter id="b"><feGaussianBlur stdDeviation="12" /></filter><path fill="#e1e1e0" d="M0 0h399v550H0z"/><g filter="url(#b)" transform="translate(1 1) scale(2.14844)" fill-opacity=".5"><ellipse fill="#909191" rx="1" ry="1" transform="rotate(136.7 30.3 78.6) scale(35.65905 61.96239)"/><path fill="#414141" d="M89.8 134l-6.6 5 35.1-15.7-53.8-27z"/><ellipse fill="#fdfdfe" rx="1" ry="1" transform="rotate(-15 923 -46) scale(55.15825 160.50303)"/><path fill="#1e1e1d" d="M151 123l-19-2 23 35z"/><ellipse fill="#fff" cx="39" cy="22" rx="128" ry="22"/><path fill="#fff" d="M54 152l65-1 2-24z"/><ellipse fill="#fff" rx="1" ry="1" transform="matrix(10.55039 -20.74807 9.9223 5.04548 85.1 83.1)"/><path fill="#999" d="M104 154l45 44 3-42z"/></g></svg>