<svg xmlns="http://www.w3.org/2000/svg" viewBox="0 0 400 550"><filter id="b"><feGaussianBlur stdDeviation="12" /></filter><path fill="#c7c7c7" d="M0 0h399v550H0z"/><g filter="url(#b)" transform="translate(1 1) scale(2.14844)" fill-opacity=".5"><ellipse fill="#202020" rx="1" ry="1" transform="matrix(119.63888 -104.0005 24.94507 28.69602 144.6 232.5)"/><ellipse fill="#f9f9f9" cx="96" cy="21" rx="148" ry="148"/><path fill="#474746" d="M167 189l-153-9 87-20z"/><ellipse fill="#828382" rx="1" ry="1" transform="rotate(76.5 5.6 137) scale(22.51597 25.50173)"/><ellipse fill="#535353" cx="22" cy="178" rx="18" ry="18"/><ellipse fill="#979797" rx="1" ry="1" transform="rotate(84 -28 75) scale(19.37505 34.03859)"/><ellipse fill="#3d3d3d" rx="1" ry="1" transform="matrix(1.844 -3.57268 36.40745 18.79129 82.6 210.6)"/><path fill="#191918" d="M180.8 251.4l-42-.8.4-26 42 .8z"/></g></svg>