<svg xmlns="http://www.w3.org/2000/svg" viewBox="0 0 400 550"><filter id="b"><feGaussianBlur stdDeviation="12" /></filter><path fill="#efefef" d="M0 0h399v550H0z"/><g filter="url(#b)" transform="translate(1 1) scale(2.14844)" fill-opacity=".5"><path fill="#181919" d="M85.6 110.7l-35.2-16 37 4.2 56.4-27z"/><path fill="#242423" d="M134.2 78l11.4-21.6-16 16.9-43.9 34.6z"/><path fill="#2f2f2f" d="M78.1 106.7l44-16-57.8 10.1L61 75.6z"/><path fill="#fbfbfb" d="M8 1h54v251H8z"/><path fill="#313131" d="M184.5 2l-171-3v-1l171 3z"/><ellipse fill="#dededd" cx="87" cy="134" rx="30" ry="30"/><path fill="#5d5d5c" d="M59.3 87.7l8 15 1-32-13.6 23.7z"/><path fill="#f7f7f7" d="M169.8 105.8L142 83.4l-81.3 32 15 .5z"/></g></svg>