<svg xmlns="http://www.w3.org/2000/svg" viewBox="0 0 395 550"><filter id="b"><feGaussianBlur stdDeviation="12" /></filter><path fill="#e4e6ec" d="M0 0h395v550H0z"/><g filter="url(#b)" transform="translate(1 1) scale(2.14844)" fill-opacity=".5"><ellipse fill="#da788d" rx="1" ry="1" transform="matrix(4.17325 -14.29344 36.58233 10.68092 106 54.2)"/><ellipse fill="#91bad0" rx="1" ry="1" transform="matrix(-26.75904 1.20408 -1.70825 -37.96342 72.2 128.3)"/><ellipse fill="#e9bcc1" rx="1" ry="1" transform="rotate(-83.8 131.8 2) scale(65.95207 22.65532)"/><ellipse fill="#f6fdff" rx="1" ry="1" transform="matrix(33.45314 -.35033 1.91634 182.98997 166 132.8)"/><path fill="#68a8cf" d="M86.8 109.4L77 83.9l-40.6 87.7 21.6-72z"/><path fill="#2182bc" d="M80.8 123.6L96.5 150l1.8 1-40.8-39.3z"/><ellipse fill="#f1b1ba" cx="128" cy="144" rx="20" ry="26"/><ellipse fill="#eff7fe" rx="1" ry="1" transform="rotate(1.3 -6366.2 999) scale(23.32367 174.98061)"/></g></svg>