<svg xmlns="http://www.w3.org/2000/svg" viewBox="0 0 389 550"><filter id="b"><feGaussianBlur stdDeviation="12" /></filter><path fill="#e2e9f0" d="M0 0h388v550H0z"/><g filter="url(#b)" transform="translate(1 1) scale(2.14844)" fill-opacity=".5"><path fill="#4571a3" d="M126 168h24v19h-24z"/><path fill="#8ca0b4" d="M100 197l-14-16 31-58z"/><path fill="#9b95ab" d="M91 50.4l14 1.4-4 37.8-14-1.4z"/><path fill="#b2bfd0" d="M31.8 39.4l44.5 136.4L51 179 62.9 47.7z"/><ellipse fill="#b4c7d5" cx="130" cy="47" rx="22" ry="22"/><ellipse fill="#f6fbff" rx="1" ry="1" transform="matrix(18.3992 -1.1128 9.04947 149.62524 171.1 129.9)"/><path fill="#8ea9c7" d="M103.2 200.4l33.5 6.2L98 186.5l25.1 40.7z"/><ellipse fill="#f4f8fc" rx="1" ry="1" transform="matrix(-83.9382 -1.62137 .57976 -30.01434 87.2 242.6)"/></g></svg>