<svg xmlns="http://www.w3.org/2000/svg" viewBox="0 0 399 550"><filter id="c"><feGaussianBlur stdDeviation="55" /></filter><path fill="#e4ebee" d="M0 0h399v550H0z"/><g filter='url(#c)' fill-opacity='.5'><ellipse fill="#698460" fill-opacity=".5" rx="1" ry="1" transform="rotate(83.2 -51.3 198.1) scale(107.30411 29.24373)"/><ellipse fill="#a5b1c6" fill-opacity=".5" rx="1" ry="1" transform="rotate(-147.2 154.3 85.7) scale(27.74296 118.56205)"/><path fill="#9e9e26" fill-opacity=".5" d="M181.5 140.7l-19.3 71-21.5-66.7z"/><ellipse fill="#f4f9ff" fill-opacity=".5" rx="1" ry="1" transform="matrix(10.76252 63.6114 -353.40128 59.79254 177 79)"/><ellipse fill="#f2f6fb" fill-opacity=".5" rx="1" ry="1" transform="matrix(185.48977 -351.52356 120.94988 63.82208 269.7 489)"/><path fill="#547abe" fill-opacity=".5" d="M112.8 216l19.3-73.1 28 118.1z"/><path fill="#2d5588" fill-opacity=".5" d="M164.4 319h45v15h-45z"/><path fill="#e7ea52" fill-opacity=".5" d="M132.4 263.7l29-7.8 13.4 49.8-29 7.8z"/></g></svg>