<svg xmlns="http://www.w3.org/2000/svg" viewBox="0 0 396 550"><filter id="b"><feGaussianBlur stdDeviation="12" /></filter><path fill="#e2e6ea" d="M0 0h395v550H0z"/><g filter="url(#b)" transform="translate(1 1) scale(2.14844)" fill-opacity=".5"><ellipse fill="#90bfd9" rx="1" ry="1" transform="rotate(-14.2 789.8 -457.5) scale(23.97259 29.10728)"/><path fill="#55cbc2" d="M43 54h29v28H43z"/><ellipse fill="#005fb2" rx="1" ry="1" transform="matrix(9.05109 -25.84586 1.66925 .58456 143.5 218.7)"/><ellipse fill="#debcc7" cx="129" cy="93" rx="22" ry="62"/><ellipse fill="#c5c1a2" rx="1" ry="1" transform="matrix(29.78797 9.4493 -3.46678 10.92866 78.2 168.1)"/><ellipse fill="#d8898c" rx="1" ry="1" transform="matrix(9.79687 2.46009 -3.54548 14.11924 26 87.1)"/><ellipse fill="#f8feff" rx="1" ry="1" transform="rotate(-7 879.6 -1449.7) scale(32.88494 183)"/><ellipse fill="#f4fbff" rx="1" ry="1" transform="rotate(-90.3 29.5 -3.5) scale(30.5459 61.07805)"/></g></svg>