<svg xmlns="http://www.w3.org/2000/svg" viewBox="0 0 388 550"><filter id="b"><feGaussianBlur stdDeviation="12" /></filter><path fill="#e5e5ea" d="M0 0h388v550H0z"/><g filter="url(#b)" transform="translate(1 1) scale(2.14844)" fill-opacity=".5"><ellipse fill="#c6a6a7" rx="1" ry="1" transform="matrix(145.01638 8.5616 -2.06019 34.89544 87.8 121.3)"/><ellipse fill="#f3feff" cx="114" cy="212" rx="180" ry="57"/><path fill="#ad0609" d="M7 100l11-18v35z"/><ellipse fill="#f4ffff" rx="1" ry="1" transform="matrix(179.58543 -12.20952 3.09636 45.54324 97 40.3)"/><ellipse fill="#fff" rx="1" ry="1" transform="matrix(-.1341 -38.41846 12.4021 -.0433 180.1 122.3)"/><path fill="#bd9198" d="M151 90h17v72h-17z"/><path fill="#f5ffff" d="M-16 195.4V102L6.8 80.3l3.7 75.8z"/><ellipse fill="#b7e7e4" rx="1" ry="1" transform="matrix(-3.4203 -27.85606 20.31035 -2.4938 102 131.2)"/></g></svg>