<svg xmlns="http://www.w3.org/2000/svg" viewBox="0 0 392 550"><filter id="b"><feGaussianBlur stdDeviation="12" /></filter><path fill="#dadcda" d="M0 0h391v550H0z"/><g filter="url(#b)" transform="translate(1 1) scale(2.14844)" fill-opacity=".5"><ellipse fill="#a79c83" rx="1" ry="1" transform="rotate(35.6 -159.6 189.7) scale(79.31782 55.28531)"/><ellipse fill="#fff" cx="99" cy="21" rx="181" ry="39"/><ellipse fill="#fcffff" rx="1" ry="1" transform="rotate(91.2 -62.9 163.7) scale(43.0663 181)"/><path fill="#c0e300" d="M85.1 104l1.7 24-28 2-1.6-24z"/><ellipse fill="#a96173" cx="31" cy="90" rx="18" ry="29"/><ellipse fill="#8ecac6" rx="1" ry="1" transform="matrix(-9.66262 41.80663 -18.35041 -4.24126 36.9 147.3)"/><ellipse fill="#f9ffff" rx="1" ry="1" transform="matrix(-26.89288 -.61863 2.86254 -124.43914 179.2 155)"/><path fill="#6e9b9a" d="M155.7 100l-4.5-34-24.4 32.5 25.1 8.3z"/></g></svg>