<svg xmlns="http://www.w3.org/2000/svg" viewBox="0 0 400 550"><filter id="b"><feGaussianBlur stdDeviation="12" /></filter><path fill="#837a72" d="M0 0h399v550H0z"/><g filter="url(#b)" transform="translate(1 1) scale(2.14844)" fill-opacity=".5"><ellipse fill="#fff" rx="1" ry="1" transform="rotate(91.5 5.6 93.7) scale(25.11361 154.3638)"/><ellipse rx="1" ry="1" transform="matrix(43.35335 -77.40812 48.6415 27.24226 149.4 194.9)"/><ellipse fill="#fff4e0" rx="1" ry="1" transform="matrix(7.52502 14.57946 -42.83141 22.10694 64.7 183.8)"/><ellipse fill="#fff" cx="84" cy="7" rx="158" ry="6"/><ellipse fill="#271f0d" rx="1" ry="1" transform="matrix(-6.56965 -25.963 39.63382 -10.0289 120.6 37)"/><ellipse rx="1" ry="1" transform="matrix(-15.32857 3.06295 -8.07166 -40.39473 75.5 249.7)"/><ellipse fill="#fbffff" cx="29" cy="86" rx="185" ry="23"/><path fill="#fff" d="M7 271l-23-75 19-75z"/></g></svg>