<svg xmlns="http://www.w3.org/2000/svg" viewBox="0 0 400 550"><filter id="b"><feGaussianBlur stdDeviation="12" /></filter><path fill="#90827c" d="M0 0h399v550H0z"/><g filter="url(#b)" transform="translate(1 1) scale(2.14844)" fill-opacity=".5"><path fill="#ffffae" d="M-16.5 49l56.6-60.6 26.4 24.5L9.9 73.6z"/><ellipse fill="#a84437" cx="54" cy="131" rx="80" ry="80"/><ellipse fill="#ffffe1" rx="1" ry="1" transform="matrix(.80733 19.78634 -32.3223 1.31882 66 224)"/><ellipse fill="#77dff4" rx="1" ry="1" transform="matrix(2.76733 -184.9793 25.26804 .37802 185 118.1)"/><ellipse fill="#045e79" rx="1" ry="1" transform="rotate(-71.5 135.6 4.3) scale(15.04554 56.72121)"/><path fill="#000100" d="M-16 237v-91l56 94z"/><ellipse rx="1" ry="1" transform="rotate(43.8 -258.6 241.5) scale(8.24409 42.69965)"/><ellipse fill="#43d1f5" rx="1" ry="1" transform="rotate(-57.8 289.2 10) scale(53.9927 16.49417)"/></g></svg>