<svg xmlns="http://www.w3.org/2000/svg" viewBox="0 0 400 550"><filter id="b"><feGaussianBlur stdDeviation="12" /></filter><path fill="#8a807a" d="M0 0h399v550H0z"/><g filter="url(#b)" transform="translate(1 1) scale(2.14844)" fill-opacity=".5"><ellipse fill="#ffdab7" rx="1" ry="1" transform="matrix(44.86103 -178.59925 38.93347 9.77941 34.8 34.2)"/><ellipse fill="#311d26" rx="1" ry="1" transform="matrix(-84.55304 -14.22173 8.20918 -48.80638 129.4 194.8)"/><ellipse fill="#b4e2ff" rx="1" ry="1" transform="matrix(-24.44417 -49.30897 19.56097 -9.69705 185 141.7)"/><ellipse fill="#f6f1f4" rx="1" ry="1" transform="matrix(103.11826 -44.79232 12.48745 28.74789 65.5 0)"/><ellipse fill="#e17037" cx="33" cy="119" rx="21" ry="73"/><path fill="#fff" d="M128-1l68 6 5 50z"/><ellipse fill="#26687b" rx="1" ry="1" transform="matrix(-27.91965 3.72528 -6.4568 -48.39142 150.4 65.6)"/><ellipse fill="#000604" rx="1" ry="1" transform="matrix(-28.49783 .49743 -.163 -9.33792 40.2 224.4)"/></g></svg>