<svg xmlns="http://www.w3.org/2000/svg" viewBox="0 0 400 550"><filter id="b"><feGaussianBlur stdDeviation="12" /></filter><path fill="#c2baba" d="M0 0h399v550H0z"/><g filter="url(#b)" transform="translate(1 1) scale(2.14844)" fill-opacity=".5"><ellipse fill="#190000" rx="1" ry="1" transform="matrix(-2.21128 -13.85881 49.19618 -7.84961 101 122.8)"/><path fill="#120003" d="M81.7 227.5l-68.4-34.1L69.1 205l56.9 10z"/><ellipse fill="#f9fefe" cx="70" cy="28" rx="185" ry="27"/><ellipse fill="#fff" cy="140" rx="22" ry="135"/><ellipse fill="#8e7168" rx="1" ry="1" transform="matrix(-24.76148 27.79167 -18.75722 -16.71207 58.2 92.3)"/><path fill="#9c6b71" d="M153.5 197.2l-37.1 17.4-28-59.8 37.2-17.4z"/><path fill="#2c1c1f" d="M32.7 189.3l-5.2-33.7 4 52.5 62.1 17z"/><path fill="#321418" d="M129.3 116l2.5 15.7-65.1 10.4-2.5-15.8z"/></g></svg>