<svg xmlns="http://www.w3.org/2000/svg" viewBox="0 0 400 550"><filter id="b"><feGaussianBlur stdDeviation="12" /></filter><path fill="#9a9ba1" d="M0 0h399v550H0z"/><g filter="url(#b)" transform="translate(1 1) scale(2.14844)" fill-opacity=".5"><ellipse fill="#0a0000" rx="1" ry="1" transform="matrix(-17.7972 -22.51577 49.44187 -39.08047 91.2 167.7)"/><ellipse fill="#fff" rx="1" ry="1" transform="matrix(184.98653 -2.23227 .32917 27.27839 85.8 243.9)"/><ellipse rx="1" ry="1" transform="rotate(21.3 -264.7 289.6) scale(29.74584 20.3721)"/><ellipse fill="#00020a" rx="1" ry="1" transform="rotate(135 54.4 52) scale(34.12612 11.0247)"/><path fill="#3a484e" d="M140 10L45 73-1 23z"/><ellipse fill="#fff" cx="77" cy="4" rx="172" ry="9"/><ellipse fill="#d0e6f2" rx="1" ry="1" transform="matrix(29.0028 -33.0153 60.55857 53.19861 181.4 130.7)"/><ellipse fill="#000807" rx="1" ry="1" transform="matrix(-40.9095 16.1646 -5.69164 -14.40446 47 197.9)"/></g></svg>