<svg xmlns="http://www.w3.org/2000/svg" viewBox="0 0 400 550"><filter id="b"><feGaussianBlur stdDeviation="12" /></filter><path fill="#beb9b6" d="M0 0h399v550H0z"/><g filter="url(#b)" transform="translate(1 1) scale(2.14844)" fill-opacity=".5"><ellipse rx="1" ry="1" transform="matrix(6.99045 -66.50973 35.61396 3.74318 92.3 173)"/><ellipse fill="#000005" rx="1" ry="1" transform="matrix(-23.27737 43.91825 -20.50182 -10.8663 93.2 192.6)"/><ellipse fill="#f7f7f4" rx="1" ry="1" transform="matrix(61.09537 -7.06897 21.26337 183.77394 .3 108.3)"/><ellipse fill="#ffeaeb" rx="1" ry="1" transform="rotate(179.9 58.4 16) scale(132.63036 30.25336)"/><ellipse fill="#3e270e" cx="83" cy="91" rx="16" ry="24"/><ellipse fill="#fff" rx="1" ry="1" transform="matrix(-.19023 18.94767 -164.06437 -1.64719 116.2 255)"/><ellipse fill="#e9f1ef" rx="1" ry="1" transform="matrix(-45.31688 -34.77287 17.86337 -23.28 144.2 98.4)"/><path fill="#473c32" d="M135 118l-48 86-49-49z"/></g></svg>