<svg xmlns="http://www.w3.org/2000/svg" viewBox="0 0 400 550"><filter id="b"><feGaussianBlur stdDeviation="12" /></filter><path fill="#666d61" d="M0 0h399v550H0z"/><g filter="url(#b)" transform="translate(1 1) scale(2.14844)" fill-opacity=".5"><ellipse fill="#fff" cx="10" cy="149" rx="31" ry="185"/><ellipse fill="#293520" cx="182" cy="115" rx="136" ry="136"/><ellipse fill="#fff" rx="1" ry="1" transform="matrix(20.1415 -23.4995 11.54512 9.89537 130.5 101.6)"/><ellipse fill="#fff" rx="1" ry="1" transform="matrix(-36.27242 -9.58359 12.5682 -47.56873 3.5 223.9)"/><ellipse fill="#fff" rx="1" ry="1" transform="matrix(-24.82353 -23.48508 16.74585 -17.70022 6 100.3)"/><ellipse fill="#fff" rx="1" ry="1" transform="rotate(-118.4 15 12) scale(21.48913 36.59381)"/><path fill="#252826" d="M68.6 63.8L38 92.5 13.4 66.2 44 37.5z"/><ellipse fill="#272f2c" rx="1" ry="1" transform="matrix(-23.1332 -52.4917 31.66503 -13.95484 91.5 225)"/></g></svg>