<svg xmlns="http://www.w3.org/2000/svg" viewBox="0 0 400 550"><filter id="b"><feGaussianBlur stdDeviation="12" /></filter><path fill="#c5c5c4" d="M0 0h399v550H0z"/><g filter="url(#b)" transform="translate(1 1) scale(2.14844)" fill-opacity=".5"><ellipse rx="1" ry="1" transform="matrix(-2.66541 22.70364 -89.00304 -10.44898 77.8 187)"/><path d="M103 202.3L75.3 199 87 103.7l27.7 3.4z"/><ellipse fill="#fefeff" rx="1" ry="1" transform="matrix(-46.13442 -5.25635 10.82258 -94.98856 155.5 92.8)"/><ellipse fill="#fafafb" rx="1" ry="1" transform="matrix(-49.46963 -7.04057 16.16137 -113.5557 49.3 54.5)"/><path fill="#000100" d="M93 140.4L45.1 168l34.5 2.6 61.8 40.5z"/><ellipse fill="#fafafa" cx="66" cy="238" rx="119" ry="30"/><path fill="#010200" d="M69 189h101v19H69z"/><path fill="#000100" d="M-16 235.4l36-73.2 19 42.3-55-6.5z"/></g></svg>