<svg xmlns="http://www.w3.org/2000/svg" viewBox="0 0 400 550"><filter id="b"><feGaussianBlur stdDeviation="12" /></filter><path fill="#778a8b" d="M0 0h399v550H0z"/><g filter="url(#b)" transform="translate(1 1) scale(2.14844)" fill-opacity=".5"><ellipse rx="1" ry="1" transform="matrix(-48.9237 2.44626 -3.09988 -61.99563 42.4 235.6)"/><ellipse rx="1" ry="1" transform="matrix(34.28957 -6.99936 14.22682 69.6966 160.2 249.6)"/><ellipse fill="#dfd9dc" cx="130" cy="137" rx="85" ry="48"/><ellipse cx="18" cy="138" rx="26" ry="26"/><ellipse fill="#deffff" rx="1" ry="1" transform="matrix(31.86746 46.00007 -22.28074 15.43542 13.4 71.6)"/><ellipse fill="#ffdbc9" rx="1" ry="1" transform="matrix(18.28664 56.8831 -19.59128 6.29816 99.5 198.3)"/><ellipse fill="#abe6f4" cx="158" cy="21" rx="36" ry="82"/><ellipse fill="#00852d" rx="1" ry="1" transform="matrix(45.59603 -1.27051 .45529 16.33934 83.4 40.9)"/></g></svg>