<svg xmlns="http://www.w3.org/2000/svg" viewBox="0 0 400 550"><filter id="c"><feGaussianBlur stdDeviation="55" /></filter><path fill="#4a5457" d="M0 0h399v550H0z"/><g filter='url(#c)' fill-opacity='.5'><ellipse fill="#98f4ff" fill-opacity=".5" rx="1" ry="1" transform="matrix(-17.65008 -165.28431 79.1897 -8.45636 240.1 197.5)"/><path fill="#2d1914" fill-opacity=".5" d="M255.9 265L329 484.9-21 34.4l-12.4 538.4z"/><ellipse fill="#050000" fill-opacity=".5" rx="1" ry="1" transform="matrix(-37.53475 25.89349 -52.87205 -76.6424 329.4 94.4)"/><ellipse fill="#8bffff" fill-opacity=".5" rx="1" ry="1" transform="rotate(-100.5 304.5 47.8) scale(117.57084 14.77408)"/><ellipse fill="#72e2ff" fill-opacity=".5" rx="1" ry="1" transform="rotate(47.5 -71 369.5) scale(92.74126 56.74858)"/><path fill="#a5f9ff" fill-opacity=".5" d="M193 259.3L155.6 296l14.2 13.5L254 446.2z"/><path fill="#fff" fill-opacity=".5" d="M91.3 344.8h17.2v98.9H91.3z"/><ellipse fill="#120d09" fill-opacity=".5" rx="1" ry="1" transform="matrix(-47.16434 8.57121 -17.94162 -98.72634 169.3 431.7)"/></g></svg>